<svg xmlns="http://www.w3.org/2000/svg" version="1.1" xmlns:xlink="http://www.w3.org/1999/xlink" xmlns:svgjs="http://svgjs.com/svgjs" width="1440" height="560" preserveAspectRatio="none" viewBox="0 0 1440 560">
  <g mask="url(&quot;#SvgjsMask1005&quot;)" fill="none">
    <path d="M1512 560L0 560 L0 536.85Q-37.99 378.87, 120 340.88Q296.56 445.44, 192 622.01Q152.84 462.85, 312 423.69Q470.32 510.01, 384 668.33Q379.63 591.96, 456 587.59Q356.2 415.79, 528 315.99Q679.84 347.83, 648 499.66Q581.38 361.04, 720 294.41Q835.61 338.02, 792 453.64Q780.84 322.48, 912 311.32Q966.64 293.97, 984 348.61Q1076.17 368.78, 1056 460.95Q1190.24 523.19, 1128 657.43Q1021.53 430.96, 1248 324.49Q1448.13 404.63, 1368 604.76Q1328.56 493.32, 1440 453.87Q1570.36 512.23, 1512 642.58z" fill="rgba(221, 236, 248, 1)"></path>
  </g>
  <defs>
    <mask id="SvgjsMask1005">
      <rect width="1440" height="560" fill="#ffffff"></rect>
    </mask>
  </defs>
</svg>