<svg  width="1440" height="560" preserveAspectRatio="none" viewBox="0 0 1440 560">
    <g mask="url(&quot;#SvgjsMask1000&quot;)" fill="none">
        <rect width="1440" height="560" x="0" y="0" fill="#0e2a47"></rect>
        <path d="M298 356L297 773" stroke-width="6" stroke="url(#SvgjsLinearGradient1001)" stroke-linecap="round" class="Up"></path>
        <path d="M1270 499L1269 330" stroke-width="10" stroke="url(#SvgjsLinearGradient1001)" stroke-linecap="round" class="Up"></path>
        <path d="M543 431L542 153" stroke-width="6" stroke="url(#SvgjsLinearGradient1001)" stroke-linecap="round" class="Up"></path>
        <path d="M559 48L558 403" stroke-width="8" stroke="url(#SvgjsLinearGradient1002)" stroke-linecap="round" class="Down"></path>
        <path d="M192 484L191 310" stroke-width="8" stroke="url(#SvgjsLinearGradient1001)" stroke-linecap="round" class="Up"></path>
        <path d="M1274 448L1273 28" stroke-width="6" stroke="url(#SvgjsLinearGradient1002)" stroke-linecap="round" class="Down"></path>
        <path d="M716 278L715 543" stroke-width="6" stroke="url(#SvgjsLinearGradient1002)" stroke-linecap="round" class="Down"></path>
        <path d="M921 113L920 506" stroke-width="10" stroke="url(#SvgjsLinearGradient1001)" stroke-linecap="round" class="Up"></path>
        <path d="M246 429L245 811" stroke-width="10" stroke="url(#SvgjsLinearGradient1001)" stroke-linecap="round" class="Up"></path>
        <path d="M219 130L218 461" stroke-width="10" stroke="url(#SvgjsLinearGradient1001)" stroke-linecap="round" class="Up"></path>
        <path d="M1001 117L1000 320" stroke-width="10" stroke="url(#SvgjsLinearGradient1002)" stroke-linecap="round" class="Down"></path>
        <path d="M956 424L955 106" stroke-width="6" stroke="url(#SvgjsLinearGradient1002)" stroke-linecap="round" class="Down"></path>
        <path d="M550 208L549 -61" stroke-width="10" stroke="url(#SvgjsLinearGradient1002)" stroke-linecap="round" class="Down"></path>
        <path d="M775 231L774 -25" stroke-width="6" stroke="url(#SvgjsLinearGradient1001)" stroke-linecap="round" class="Up"></path>
        <path d="M854 538L853 819" stroke-width="10" stroke="url(#SvgjsLinearGradient1002)" stroke-linecap="round" class="Down"></path>
        <path d="M942 559L941 353" stroke-width="10" stroke="url(#SvgjsLinearGradient1002)" stroke-linecap="round" class="Down"></path>
        <path d="M872 415L871 774" stroke-width="10" stroke="url(#SvgjsLinearGradient1001)" stroke-linecap="round" class="Up"></path>
        <path d="M912 525L911 671" stroke-width="10" stroke="url(#SvgjsLinearGradient1002)" stroke-linecap="round" class="Down"></path>
        <path d="M668 310L667 669" stroke-width="10" stroke="url(#SvgjsLinearGradient1002)" stroke-linecap="round" class="Down"></path>
        <path d="M160 343L159 105" stroke-width="10" stroke="url(#SvgjsLinearGradient1001)" stroke-linecap="round" class="Up"></path>
        <path d="M908 316L907 646" stroke-width="6" stroke="url(#SvgjsLinearGradient1001)" stroke-linecap="round" class="Up"></path>
        <path d="M1165 9L1164 360" stroke-width="10" stroke="url(#SvgjsLinearGradient1001)" stroke-linecap="round" class="Up"></path>
        <path d="M408 7L407 -322" stroke-width="8" stroke="url(#SvgjsLinearGradient1002)" stroke-linecap="round" class="Down"></path>
        <path d="M572 373L571 13" stroke-width="10" stroke="url(#SvgjsLinearGradient1001)" stroke-linecap="round" class="Up"></path>
        <path d="M1305 155L1304 419" stroke-width="6" stroke="url(#SvgjsLinearGradient1002)" stroke-linecap="round" class="Down"></path>
        <path d="M109 461L108 674" stroke-width="10" stroke="url(#SvgjsLinearGradient1001)" stroke-linecap="round" class="Up"></path>
        <path d="M1169 120L1168 -245" stroke-width="10" stroke="url(#SvgjsLinearGradient1001)" stroke-linecap="round" class="Up"></path>
        <path d="M214 142L213 -140" stroke-width="10" stroke="url(#SvgjsLinearGradient1001)" stroke-linecap="round" class="Up"></path>
        <path d="M1344 500L1343 284" stroke-width="10" stroke="url(#SvgjsLinearGradient1001)" stroke-linecap="round" class="Up"></path>
        <path d="M417 431L416 219" stroke-width="10" stroke="url(#SvgjsLinearGradient1001)" stroke-linecap="round" class="Up"></path>
        <path d="M66 454L65 217" stroke-width="8" stroke="url(#SvgjsLinearGradient1002)" stroke-linecap="round" class="Down"></path>
        <path d="M183 141L182 423" stroke-width="8" stroke="url(#SvgjsLinearGradient1002)" stroke-linecap="round" class="Down"></path>
        <path d="M1041 436L1040 620" stroke-width="10" stroke="url(#SvgjsLinearGradient1001)" stroke-linecap="round" class="Up"></path>
        <path d="M717 467L716 788" stroke-width="6" stroke="url(#SvgjsLinearGradient1001)" stroke-linecap="round" class="Up"></path>
        <path d="M1392 9L1391 261" stroke-width="10" stroke="url(#SvgjsLinearGradient1002)" stroke-linecap="round" class="Down"></path>
        <path d="M543 472L542 160" stroke-width="8" stroke="url(#SvgjsLinearGradient1001)" stroke-linecap="round" class="Up"></path>
    </g>
    <defs>
        <mask id="SvgjsMask1000">
            <rect width="1440" height="560" fill="#ffffff"></rect>
        </mask>
        <linearGradient x1="0%" y1="100%" x2="0%" y2="0%" id="SvgjsLinearGradient1001">
            <stop stop-color="rgba(28, 83, 142, 0)" offset="0"></stop>
            <stop stop-color="#1c538e" offset="1"></stop>
        </linearGradient>
        <linearGradient x1="0%" y1="0%" x2="0%" y2="100%" id="SvgjsLinearGradient1002">
            <stop stop-color="rgba(28, 83, 142, 0)" offset="0"></stop>
            <stop stop-color="#1c538e" offset="1"></stop>
        </linearGradient>
    </defs>
</svg>